<?xml version="1.0" encoding="iso-8859-1"?>
<!-- Uploaded to: SVG Repo, www.svgrepo.com, Generator: SVG Repo Mixer Tools -->
<svg fill="#000000" height="34px" width="34px" version="1.1" id="Layer_1" xmlns="http://www.w3.org/2000/svg" xmlns:xlink="http://www.w3.org/1999/xlink"
	 viewBox="0 0 512.001 512.001" xml:space="preserve">
<g>
	<g>
		<g>
			<path d="M485.316,131.694h-28.945v-9.651c0-12.71-10.341-23.051-23.052-23.051h-40.343c-12.71,0-23.051,10.341-23.051,23.051
				v9.651h-34.04L324.19,96.388c-4.154-12.54-15.82-20.965-29.031-20.965h-93.418c-13.21,0-24.876,8.425-29.032,20.965
				l-11.696,35.307H26.684C11.97,131.695,0,143.666,0,158.379v251.516c0,14.713,11.97,26.684,26.684,26.684h458.634
				c14.713,0,26.684-11.97,26.684-26.684V158.378C512,143.665,500.03,131.694,485.316,131.694z M386.369,122.044h0.001
				c0-3.643,2.963-6.606,6.606-6.606h40.343c3.643,0,6.607,2.964,6.607,6.606v9.651h-53.558V122.044z M188.318,101.56
				c1.921-5.797,7.316-9.692,13.422-9.692h93.418c6.106,0,11.5,3.895,13.421,9.692l9.984,30.135H178.335L188.318,101.56z
				 M495.556,331.149H470.77c-7.939,0-14.399-6.459-14.399-14.399v-71.073c0-7.939,6.459-14.399,14.399-14.399h24.786V331.149z
				 M495.557,214.834h-0.001H470.77c-17.007,0-30.843,13.836-30.843,30.843v71.073c0,17.007,13.836,30.843,30.843,30.843h24.786
				v62.3c0,5.646-4.592,10.239-10.239,10.239H26.684c-5.646,0-10.239-4.593-10.239-10.239V158.378
				c0-5.646,4.592-10.239,10.239-10.239h458.634c5.646,0,10.239,4.593,10.239,10.239V214.834z"/>
			<path d="M271.98,103.558h-47.061c-4.542,0-8.222,3.681-8.222,8.222s3.68,8.222,8.222,8.222h47.061
				c4.542,0,8.222-3.681,8.222-8.222S276.521,103.558,271.98,103.558z"/>
			<path d="M256.001,176.531c-59.333,0-107.604,48.271-107.604,107.604s48.271,107.604,107.604,107.604
				s107.604-48.271,107.604-107.604C363.604,224.803,315.334,176.531,256.001,176.531z M256.001,375.295
				c-50.266,0-91.16-40.894-91.16-91.16s40.895-91.16,91.16-91.16c50.265,0,91.16,40.894,91.16,91.16
				S306.265,375.295,256.001,375.295z"/>
			<path d="M256.001,217.165c-36.928,0-66.971,30.043-66.971,66.971c0,36.927,30.043,66.97,66.971,66.97
				c36.928,0,66.971-30.043,66.971-66.97C322.971,247.208,292.928,217.165,256.001,217.165z M306.526,284.136
				c0,27.86-22.667,50.526-50.527,50.526c-27.86,0-50.527-22.666-50.527-50.526s22.667-50.527,50.527-50.527
				c15.144,0,28.745,6.707,38.013,17.296c-4.893-4.086-11.184-6.55-18.043-6.55c-15.545,0-28.192,12.647-28.192,28.192
				s12.647,28.192,28.192,28.192s28.192-12.647,28.192-28.192c0-1.721-0.163-3.404-0.461-5.041
				C305.523,272.717,306.526,278.311,306.526,284.136z M287.717,272.546c0,6.478-5.27,11.748-11.748,11.748
				s-11.748-5.27-11.748-11.748s5.27-11.748,11.748-11.748S287.717,266.069,287.717,272.546z"/>
			<path d="M125.451,165.865H68.045c-8.656,0-15.697,7.041-15.697,15.697v17.939c0,8.655,7.041,15.697,15.697,15.697h57.405
				c8.656,0,15.697-7.042,15.697-15.697v-17.939C141.148,172.908,134.107,165.865,125.451,165.865z M124.704,198.754H68.793V182.31
				h55.911V198.754z"/>
			<path d="M111,226.161H70.438c-4.542,0-8.222,3.681-8.222,8.222s3.68,8.222,8.222,8.222H111c4.542,0,8.222-3.681,8.222-8.222
				S115.542,226.161,111,226.161z"/>
		</g>
	</g>
</g>
</svg>
